<!-- icon666.com - MILLIONS vector ICONS FREE --><svg id="Layer_1" viewBox="0 0 512 512" xmlns="http://www.w3.org/2000/svg" data-name="Layer 1"><path d="m451.562 369.581a83.3 83.3 0 0 0 -41.862-57.131 7.992 7.992 0 0 0 -1.917-.748c-31.211-7.728-62.984-14.935-94.536-21.445-.623-5.527-1.5-15.666-2.695-33.973a88.839 88.839 0 0 0 32.6-47.508h14.369a25.571 25.571 0 0 0 25.542-25.542v-28.852a25.58 25.58 0 0 0 -17.511-24.24c.024-2.653.054-5.294.089-7.883.589-43.738 1.2-88.964-62.583-102.83a191.345 191.345 0 0 0 -90.549 0c-63.776 13.871-63.166 59.093-62.577 102.832.034 2.5.064 5.042.088 7.6a25.581 25.581 0 0 0 -18.42 24.521v28.852a25.571 25.571 0 0 0 25.542 25.542h15.277a88.777 88.777 0 0 0 29.195 44.842c-1.283 19.968-2.212 30.822-2.867 36.639-31.553 6.51-63.326 13.717-94.536 21.445a7.992 7.992 0 0 0 -1.917.748 83.3 83.3 0 0 0 -41.859 57.131 7.981 7.981 0 0 0 -.146 1.271c-1.077 31.257-1.31 62.973-.69 94.267a33.686 33.686 0 0 0 33.565 32.909h.312c107.84-1 217.2-1 325.041 0h.312a33.689 33.689 0 0 0 33.571-32.909c.62-31.288.387-63-.689-94.267a7.981 7.981 0 0 0 -.149-1.271zm-160.342-48.792 6.9-6.095v6.095zm75.85-137.555a9.552 9.552 0 0 1 -9.542 9.542h-11.507c.213-2.5.328-5.019.328-7.569v-38.861h.048a32.467 32.467 0 0 0 10.012-1.6 7.931 7.931 0 0 0 1.119.088 9.552 9.552 0 0 1 9.542 9.541zm-151.062-148.191c.071-.015.141-.031.212-.048a175.251 175.251 0 0 1 83.141 0c.071.017.141.033.212.048 51.1 11.07 50.67 42.919 50.076 87-.035 2.625-.071 5.305-.094 8.006a16.106 16.106 0 0 1 -16.806-7.275c-.15-7.32-.218-14.556-.2-21.537a8 8 0 0 0 -5.407-7.59c-1.581-.541-3.333-.99-5.189-1.466-9.909-2.54-24.884-6.38-36.243-30.04a8 8 0 0 0 -12.77-2.293 93.432 93.432 0 0 1 -80.581 24.773 8 8 0 0 0 -9.359 7.962c.1 10.024.043 20.171-.164 30.192a16.108 16.108 0 0 1 -16.807 7.275c-.023-2.7-.059-5.38-.094-8.005-.598-44.082-1.027-75.932 50.073-87.002zm-58.863 157.733a9.552 9.552 0 0 1 -9.542-9.542v-28.852a9.552 9.552 0 0 1 9.542-9.541 7.987 7.987 0 0 0 1.7-.185 32.43 32.43 0 0 0 10.389 1.683v38.868c0 2.55.115 5.073.328 7.569zm28.087-7.569v-43.176a32.33 32.33 0 0 0 12.728-13.571 7.993 7.993 0 0 0 .825-3.361c.177-7.788.263-15.661.258-23.505a109.66 109.66 0 0 0 77.242-23.418c13.4 21.386 30.088 26.489 40.271 29.137.024 5.824.1 11.783.24 17.785a7.994 7.994 0 0 0 .825 3.362 32.336 32.336 0 0 0 12.728 13.571v43.176a72.5 72.5 0 0 1 -115.157 58.684 7.992 7.992 0 0 0 -1.209-.892 72.479 72.479 0 0 1 -28.751-57.792zm72.558 88.557a88.023 88.023 0 0 0 37.348-8.273c1.082 15.616 1.858 23.784 2.426 28.357l-29.721 26.233a7.905 7.905 0 0 0 -.7.708h-22.186l-30.52-26.94c.591-4.753 1.4-13.367 2.542-30.067a88.012 88.012 0 0 0 40.811 9.982zm-37.01 47.025h-6.905v-6.095zm-127.449 161.238h-.163a17.635 17.635 0 0 1 -17.568-17.227c-.609-30.786-.386-61.985.662-92.741a67.332 67.332 0 0 1 32.834-45.083c29.321-7.247 59.134-14.024 88.781-20.194v14h-49.646a22.163 22.163 0 0 0 -22.062 24.264l13.011 136.624q-22.959.152-45.849.357zm61.912-.449-13.143-138.043a6.161 6.161 0 0 1 6.134-6.746h215.535a6.161 6.161 0 0 1 6.134 6.747l-13.147 138.042c-67.056-.378-134.456-.378-201.513 0zm281.157-16.778a17.634 17.634 0 0 1 -17.57 17.226h-.163q-22.88-.21-45.848-.357l13.011-136.618a22.163 22.163 0 0 0 -22.062-24.263h-49.643v-14c29.646 6.17 59.459 12.947 88.781 20.194a67.332 67.332 0 0 1 32.834 45.078c1.047 30.763 1.27 61.962.66 92.74zm-180.4-69.478a27.475 27.475 0 1 0 27.474 27.478 27.506 27.506 0 0 0 -27.474-27.478zm0 38.949a11.475 11.475 0 1 1 11.474-11.471 11.488 11.488 0 0 1 -11.474 11.471zm-150.293-276.801a8 8 0 0 0 12.421-6.667v-123.22a8 8 0 0 0 -8-8h-102.128a8 8 0 0 0 -8 8v89.362a8 8 0 0 0 8 8h48.654zm-89.707-121.887h86.128v100.317l-38.642-25.623a8 8 0 0 0 -4.421-1.332h-43.065zm16.651 22.451a8 8 0 0 1 8-8h36.826a8 8 0 0 1 0 16h-36.826a8 8 0 0 1 -8-8zm44.826 38.451h-36.826a8 8 0 1 1 0-16h36.826a8 8 0 0 1 0 16zm426.523-76.902h-102.128a8 8 0 0 0 -8 8v123.217a8 8 0 0 0 12.421 6.667l49.053-32.525h48.654a8 8 0 0 0 8-8v-89.359a8 8 0 0 0 -8-8zm-8 89.362h-43.065a8 8 0 0 0 -4.421 1.332l-38.642 25.623v-100.317h86.128zm-69.477-50.911a8 8 0 0 1 8-8h36.826a8 8 0 0 1 0 16h-36.826a8 8 0 0 1 -8-8zm0 30.451a8 8 0 0 1 8-8h36.826a8 8 0 0 1 0 16h-36.826a8 8 0 0 1 -8-8z" fill="#000000" style="fill: rgb(255, 255, 255);"></path></svg>