<!-- icon666.com - MILLIONS vector ICONS FREE --><svg id="line" viewBox="0 0 64 64" xmlns="http://www.w3.org/2000/svg"><path d="m12.24658 41.23828 17.94242 5.30664a1.97206 1.97206 0 0 0 .56739 0l17.94287-5.30664a1.00006 1.00006 0 0 0 .71631-.959v-18.02728a1.03864 1.03864 0 0 0 -.67243-.94433l-17.94285-6.22662a.99216.99216 0 0 0 -.65527 0l-17.94238 6.22657a1.02438 1.02438 0 0 0 -.66736.90234c-.05084.03186.02612 18.0315-.00507 18.06934a1.00019 1.00019 0 0 0 .71637.95898zm35.16895-1.70605-15.94287 4.71484v-15.53613l15.94287-5.08985zm-16.94287-22.44823 14.78 5.12848-14.78 4.71875-14.77954-4.71877zm-16.94239 6.53709 15.94239 5.08985v15.53613l-15.94239-4.71484z" fill="#000000" style="fill: rgb(255, 255, 255);"></path><path d="m25.21143 28.40234-6.82325-2.13379a.98579.98579 0 0 0 -.89062.14844.99962.99962 0 0 0 -.40772.80567v3.706a.9989.9989 0 0 0 .70508.95508l6.82324 2.10644a1.00664 1.00664 0 0 0 1.29493-.95513v-3.6786a.99885.99885 0 0 0 -.70166-.95411zm-1.29834 3.27735-4.82325-1.48926v-1.60743l4.82325 1.50879z" fill="#000000" style="fill: rgb(255, 255, 255);"></path><path d="m40.43311 40.63184c.104 0 5.1831-1.66016 5.1831-1.66016a1 1 0 0 0 -.628-1.89844l-4.86908 1.60938a1.00284 1.00284 0 0 0 .31398 1.94922z" fill="#000000" style="fill: rgb(255, 255, 255);"></path><path d="m41.4917 37.27539c-.03021.11841 4.03186-1.30121 4.124-1.30957a.99964.99964 0 1 0 -.627-1.89844l-3.81055 1.25879a1.00275 1.00275 0 0 0 .31355 1.94922z" fill="#000000" style="fill: rgb(255, 255, 255);"></path><path d="m54.05762 46.57129h-3.83155a1.00018 1.00018 0 0 0 .00007 2h1.89935c-14.72022 18.83325-46.24249 7.71503-46.12525-16.57147a25.99849 25.99849 0 0 1 3.36841-12.80841.99973.99973 0 1 0 -1.73926-.98633 27.99248 27.99248 0 0 0 -3.62939 13.79492c-.1347 25.68372 32.69159 37.83612 49.05786 18.60925-.08453.69983.19757 1.42371.99982 1.43567a.99972.99972 0 0 0 .99994-1c.00531-.07733.0332-3.84527-.06031-3.7724a1.02991 1.02991 0 0 0 -.93969-.70123z" fill="#000000" style="fill: rgb(255, 255, 255);"></path><path d="m32 4a26.81439 26.81439 0 0 0 -18.46973 6.90912v-1.079a1.00012 1.00012 0 0 0 -2 .00006v3.47357a1.2754 1.2754 0 0 0 .05011.24811 1.00272 1.00272 0 0 0 .94989.75183l3.832.00006a1.00019 1.00019 0 0 0 -.00006-2h-1.39535c19.99231-17.18028 50.11035 3.02438 41.59784 28.23745a.99993.99993 0 0 0 1.88891.656c6.46521-17.70697-7.5495-37.53009-26.45361-37.1972z" fill="#000000" style="fill: rgb(255, 255, 255);"></path></svg>