<!-- icon666.com - MILLIONS vector ICONS FREE --><svg xmlns="http://www.w3.org/2000/svg" id="Layer_3" data-name="Layer 3" viewBox="0 0 64 64"><path d="M36,53a1,1,0,0,0-1,1v4a1,1,0,0,0,1,1H46a1,1,0,0,0,1-1V54a1,1,0,0,0-1-1Zm9,4H37V55h8Z" fill="#000000" style="fill: rgb(255, 255, 255);"></path><path d="M52.807,8.409A1,1,0,0,0,52,8,31.209,31.209,0,0,1,32.931,1.457l-.318-.247a1,1,0,0,0-1.226,0l-.319.247A31.2,31.2,0,0,1,12,8a1,1,0,0,0-.953,1.3l.819,2.594A52.84,52.84,0,0,0,24.621,33H14a1,1,0,0,0-1,1V62a1,1,0,0,0,1,1H50a1,1,0,0,0,1-1V34a1,1,0,0,0-1-1H39.379A52.84,52.84,0,0,0,52.134,11.9L52.953,9.3A1,1,0,0,0,52.807,8.409ZM29,36.962c.79.638,1.592,1.261,2.419,1.851a1,1,0,0,0,1.162,0c.827-.59,1.629-1.213,2.419-1.851v8.624l-2.293-2.293a1,1,0,0,0-1.414,0L29,45.586ZM49,61H15V35H26.7c.1.089.2.175.3.263V48a1,1,0,0,0,1.707.707L32,45.414l3.293,3.293A1,1,0,0,0,36,49a.987.987,0,0,0,.383-.076A1,1,0,0,0,37,48V35.263c.1-.088.2-.174.3-.263H49Zm1.228-49.708A50.849,50.849,0,0,1,32,36.765,50.849,50.849,0,0,1,13.772,11.292l-.417-1.32A33.243,33.243,0,0,0,32,3.264,33.243,33.243,0,0,0,50.645,9.972Z" fill="#000000" style="fill: rgb(255, 255, 255);"></path><path d="M21,19A11,11,0,1,0,32,8,11.013,11.013,0,0,0,21,19Zm20,0a9,9,0,1,1-9-9A9.01,9.01,0,0,1,41,19Z" fill="#000000" style="fill: rgb(255, 255, 255);"></path><path d="M28.707,18.293a1,1,0,0,0-1.414,0l-2,2a1,1,0,0,0,0,1.414l4,4a1,1,0,0,0,1.414,0l8-8a1,1,0,0,0,0-1.414l-2-2a1,1,0,0,0-1.414,0L30,19.586ZM36,16.414l.586.586L30,23.586,27.414,21,28,20.414l1.293,1.293a1,1,0,0,0,1.414,0Z" fill="#000000" style="fill: rgb(255, 255, 255);"></path></svg>